<svg xmlns="http://www.w3.org/2000/svg" width="25" height="20" viewBox="0 0 25 20" fill="none">
  <path
    d="M18.25 19H24V16.75C24 14.886 22.4554 13.375 20.55 13.375C19.4511 13.375 18.4721 13.8776 17.8403 14.6608M18.25 19H6.75M18.25 19V16.75C18.25 16.0117 18.1046 15.3067 17.8403 14.6608M6.75 19H1V16.75C1 14.886 2.54462 13.375 4.45 13.375C5.54895 13.375 6.52789 13.8776 7.15968 14.6608M6.75 19V16.75C6.75 16.0117 6.89539 15.3067 7.15968 14.6608M7.15968 14.6608C8.00753 12.5887 10.079 11.125 12.5 11.125C14.921 11.125 16.9925 12.5887 17.8403 14.6608M15.95 4.375C15.95 6.23896 14.4054 7.75 12.5 7.75C10.5946 7.75 9.05 6.23896 9.05 4.375C9.05 2.51104 10.5946 1 12.5 1C14.4054 1 15.95 2.51104 15.95 4.375ZM22.85 7.75C22.85 8.99264 21.8203 10 20.55 10C19.2797 10 18.25 8.99264 18.25 7.75C18.25 6.50736 19.2797 5.5 20.55 5.5C21.8203 5.5 22.85 6.50736 22.85 7.75ZM6.75 7.75C6.75 8.99264 5.72025 10 4.45 10C3.17974 10 2.15 8.99264 2.15 7.75C2.15 6.50736 3.17974 5.5 4.45 5.5C5.72025 5.5 6.75 6.50736 6.75 7.75Z"
    stroke="#F6F6F6" strokeWidth="1.5" strokeLinecap="round" strokeLinejoin="round" />
</svg>