<svg xmlns="http://www.w3.org/2000/svg" width="19" height="20" viewBox="0 0 19 20" fill="none">
    <path
        d="M11.721 7.32769C11.902 7.53626 12.2178 7.55863 12.4263 7.37765C12.6349 7.19667 12.6573 6.88088 12.4763 6.67231L11.721 7.32769ZM7.27902 12.6723C7.09804 12.4637 6.78225 12.4414 6.57368 12.6223C6.36511 12.8033 6.34274 13.1191 6.52372 13.3277L7.27902 12.6723ZM10 5C10 4.72386 9.77614 4.5 9.5 4.5C9.22386 4.5 9 4.72386 9 5H10ZM9 15C8.99999 15.2761 9.22385 15.5 9.49999 15.5C9.77613 15.5 9.99999 15.2762 10 15L9 15ZM18 10C18 14.6944 14.1944 18.5 9.5 18.5V19.5C14.7467 19.5 19 15.2467 19 10H18ZM9.5 18.5C4.80558 18.5 1 14.6944 1 10H0C0 15.2467 4.25329 19.5 9.5 19.5V18.5ZM1 10C1 5.30558 4.80558 1.5 9.5 1.5V0.5C4.25329 0.5 0 4.75329 0 10H1ZM9.5 1.5C14.1944 1.5 18 5.30558 18 10H19C19 4.75329 14.7467 0.5 9.5 0.5V1.5ZM9.5 9.5C8.75652 9.5 8.10604 9.29819 7.65603 8.99819C7.20253 8.69585 7 8.33309 7 8H6C6 8.77148 6.46904 9.40872 7.10133 9.83024C7.73711 10.2541 8.58663 10.5 9.5 10.5V9.5ZM7 8C7 7.66691 7.20253 7.30415 7.65603 7.00181C8.10604 6.70181 8.75652 6.5 9.5 6.5V5.5C8.58663 5.5 7.73711 5.74591 7.10133 6.16976C6.46904 6.59128 6 7.22852 6 8H7ZM9.5 6.5C10.5071 6.5 11.3215 6.86725 11.721 7.32769L12.4763 6.67231C11.8384 5.93714 10.7137 5.5 9.5 5.5V6.5ZM9.5 10.5C10.2435 10.5 10.894 10.7018 11.344 11.0018C11.7975 11.3041 12 11.6669 12 12H13C13 11.2285 12.531 10.5913 11.8987 10.1698C11.2629 9.74591 10.4134 9.5 9.5 9.5V10.5ZM9 5V6H10V5H9ZM9.00002 14L9 15L10 15L10 14L9.00002 14ZM9.50002 13.5C8.49293 13.5 7.67853 13.1327 7.27902 12.6723L6.52372 13.3277C7.16162 14.0629 8.28629 14.5 9.50002 14.5L9.50002 13.5ZM12 12C12 12.3331 11.7975 12.6959 11.344 12.9982C10.894 13.2982 10.2435 13.5 9.50002 13.5V14.5C10.4134 14.5 11.2629 14.2541 11.8987 13.8302C12.531 13.4087 13 12.7715 13 12H12ZM9 6L9.00002 14L10 14L10 6L9 6Z"
        fill="#F6F6F6" />
</svg>